<?xml version="1.0" standalone="no"?>
<!DOCTYPE svg PUBLIC "-//W3C//DTD SVG 20010904//EN"
 "http://www.w3.org/TR/2001/REC-SVG-20010904/DTD/svg10.dtd">
<svg version="1.0" xmlns="http://www.w3.org/2000/svg"
 width="612.000000pt" height="436.000000pt" viewBox="0 0 612.000000 436.000000"
 preserveAspectRatio="xMidYMid meet">

<g transform="translate(0.000000,436.000000) scale(0.100000,-0.100000)"
fill="#000000" stroke="none">
<path d="M2760 4152 c-274 -15 -539 -90 -751 -213 l-65 -38 -131 25 c-72 13
-184 40 -248 59 -65 20 -120 34 -122 31 -3 -2 14 -60 37 -128 43 -124 95 -239
129 -286 18 -25 18 -26 -9 -86 -79 -175 -80 -370 -5 -541 72 -163 246 -334
438 -431 37 -19 67 -37 67 -40 0 -3 -14 -17 -30 -31 -43 -36 -116 -140 -149
-215 -182 -404 3 -922 472 -1324 59 -50 123 -99 143 -109 33 -15 38 -15 76 0
41 16 71 13 99 -11 14 -13 18 -12 29 1 31 38 122 6 140 -50 13 -40 50 -51 50
-15 0 68 72 115 132 86 29 -15 33 -15 49 0 14 12 29 15 66 9 49 -6 49 -6 113
50 222 195 416 473 495 709 40 118 55 211 56 330 2 235 -65 408 -215 558 -33
33 -56 63 -50 65 39 14 148 88 202 138 142 131 195 198 248 310 88 183 85 399
-7 575 l-42 81 26 47 c13 26 37 80 51 121 30 84 80 280 73 287 -2 2 -26 -5
-53 -17 -84 -36 -315 -109 -384 -121 -64 -11 -66 -10 -130 22 -90 46 -245 96
-370 121 -100 20 -335 37 -430 31z m793 -218 c200 -52 375 -220 430 -414 83
-289 -55 -594 -325 -720 -321 -150 -702 11 -827 350 l-13 35 -18 -56 c-58
-187 -207 -340 -392 -400 -59 -19 -94 -24 -183 -24 -63 0 -131 6 -160 14 -163
45 -304 161 -380 313 -55 110 -69 176 -63 303 9 169 68 297 194 414 254 238
662 206 879 -70 48 -62 105 -171 105 -204 0 -17 2 -17 10 -5 5 8 10 23 10 33
0 10 16 52 35 94 77 167 222 290 396 337 73 20 226 20 302 0z m-681 -946 c26
-30 71 -120 92 -184 l17 -51 -34 -34 c-21 -21 -46 -67 -68 -121 -31 -79 -49
-108 -49 -77 0 6 -19 49 -42 96 -28 56 -51 90 -71 101 -26 16 -28 20 -22 60 9
61 42 151 70 194 20 31 32 38 56 38 20 0 39 -8 51 -22z m635 -780 c6 -7 10
-21 10 -30 0 -15 -9 -18 -46 -18 -25 0 -76 -3 -113 -7 l-68 -6 0 -77 0 -78 38
9 c55 13 128 11 140 -4 22 -26 -5 -42 -90 -52 l-83 -10 1 -102 c1 -94 0 -103
-18 -109 -39 -12 -43 8 -43 216 0 192 0 199 -20 202 -29 4 -25 30 7 46 54 25
269 40 285 20z m-772 -59 c95 -24 164 -121 152 -214 -18 -128 -121 -223 -251
-232 -33 -2 -66 0 -73 4 -8 6 -14 67 -19 185 -7 176 -7 176 15 183 13 4 24 5
27 3 2 -3 6 -65 10 -139 6 -155 10 -179 27 -179 36 0 93 26 128 57 66 60 95
136 79 208 -21 92 -114 118 -250 70 -41 -15 -82 -29 -91 -32 -27 -8 -32 35 -6
51 62 39 175 54 252 35z m-386 -26 c35 -27 45 -46 37 -76 -7 -28 -23 -40 -70
-51 -26 -6 -27 -6 -12 9 22 22 20 71 -4 95 -41 41 -121 21 -178 -44 -60 -69
-65 -211 -11 -288 22 -31 88 -67 122 -68 58 0 117 60 117 119 0 42 -20 48 -85
27 -55 -17 -80 -14 -89 9 -6 17 -5 18 59 38 86 28 180 40 204 28 31 -17 27
-41 -7 -41 -27 0 -28 -1 -28 -53 1 -43 -4 -60 -26 -89 -60 -79 -171 -100 -269
-50 -76 38 -104 90 -104 192 0 84 13 116 73 182 54 60 123 90 191 84 31 -3 66
-13 80 -23z m1326 -118 c50 -49 13 -125 -61 -125 -21 0 -46 7 -56 17 -17 15
-18 14 -18 -23 0 -58 22 -84 71 -84 42 0 81 30 94 71 9 28 25 23 25 -7 0 -74
-62 -130 -133 -121 -104 14 -136 145 -60 245 42 56 99 67 138 27z m-560 -40
c33 -32 31 -60 -4 -96 -33 -33 -74 -38 -109 -13 -22 15 -22 14 -22 -25 0 -50
27 -81 71 -81 30 0 56 21 102 81 l18 24 -6 -45 c-8 -58 -28 -88 -73 -107 -106
-44 -194 75 -143 193 39 90 114 122 166 69z"/>
<path d="M3298 3814 c-80 -19 -163 -68 -228 -134 -235 -238 -166 -617 137
-752 256 -114 572 15 667 274 67 181 30 354 -104 488 -121 121 -295 167 -472
124z m250 -56 c94 -35 186 -122 236 -223 59 -122 60 -249 2 -371 -43 -92 -107
-156 -194 -197 -61 -29 -76 -32 -162 -32 -86 0 -101 3 -160 31 -149 71 -243
205 -264 374 -19 155 77 326 227 401 102 52 205 58 315 17z"/>
<path d="M3325 3642 c-150 -52 -236 -214 -195 -363 l10 -36 49 5 c40 3 52 1
70 -17 26 -26 27 -61 2 -93 l-20 -25 42 -24 c36 -20 55 -24 132 -24 81 0 95 3
143 30 131 72 191 232 139 368 l-19 47 -22 -32 c-69 -102 -216 -106 -284 -7
-20 28 -23 43 -20 86 3 30 12 61 21 71 33 36 24 39 -48 14z"/>
<path d="M2117 3774 c-190 -46 -344 -204 -378 -389 -38 -202 66 -401 256 -492
229 -108 487 -40 631 168 63 90 79 144 79 269 0 101 -1 108 -38 184 -98 206
-327 314 -550 260z m215 -55 c305 -102 401 -506 172 -720 -94 -87 -166 -113
-293 -107 -69 4 -97 10 -145 34 -116 57 -205 164 -241 288 -26 89 -17 213 21
291 91 185 299 277 486 214z"/>
<path d="M2117 3596 c-140 -50 -224 -216 -183 -360 17 -59 25 -66 46 -41 17
20 73 19 98 -2 12 -10 24 -30 28 -45 5 -23 0 -33 -25 -57 l-31 -29 52 -22
c187 -80 399 49 415 254 5 61 -18 167 -35 166 -4 -1 -16 -15 -27 -32 -29 -46
-75 -70 -138 -70 -62 -1 -107 19 -137 62 -33 46 -37 101 -11 150 19 36 19 40
3 40 -9 -1 -34 -7 -55 -14z"/>
<path d="M3572 1967 c-26 -27 -14 -47 29 -47 33 0 53 22 44 50 -9 27 -46 26
-73 -3z"/>
<path d="M3013 1936 c-28 -24 -28 -25 -8 -40 26 -20 50 -20 69 0 19 18 19 20
6 45 -14 25 -33 24 -67 -5z"/>
<path d="M2869 514 c-11 -13 -7 -15 36 -12 27 2 50 8 53 16 6 18 -72 16 -89
-4z"/>
</g>
</svg>
