<?xml version="1.0" encoding="UTF-8"?>
<svg version="1.1" xmlns="http://www.w3.org/2000/svg" width="512" height="512">
<path d="M0 0 C1.13866013 -0.00101212 1.13866013 -0.00101212 2.30032349 -0.00204468 C14.34956428 0.01495002 25.9510827 0.62169481 37.75 3.25 C38.52230957 3.41628906 39.29461914 3.58257812 40.09033203 3.75390625 C65.34008425 9.3431115 89.30053271 20.4388204 109.75 36.25 C110.65492188 36.93191406 111.55984375 37.61382812 112.4921875 38.31640625 C143.76813713 62.77104343 165.24534264 97.55398553 174.5625 136 C174.75739014 136.80203857 174.95228027 137.60407715 175.15307617 138.43041992 C178.10295404 151.36489985 179.13278591 164.21489032 179.0625 177.4375 C179.05976578 178.51442108 179.05976578 178.51442108 179.05697632 179.61309814 C179.00697623 191.3639342 178.31708875 202.75520222 175.75 214.25 C175.57307617 215.0450293 175.39615234 215.84005859 175.21386719 216.65917969 C169.49868736 241.50392513 158.89425709 263.15878479 144.75 284.25 C146.23653506 287.71629835 148.20722351 289.94022036 150.8828125 292.578125 C151.68847656 293.37734375 152.49414062 294.1765625 153.32421875 295 C154.16597656 295.825 155.00773437 296.65 155.875 297.5 C157.14923828 298.76070313 157.14923828 298.76070313 158.44921875 300.046875 C160.54504923 302.11915683 162.64540713 304.18662393 164.75 306.25 C165.87402862 305.28944935 166.99764805 304.32841986 168.12109375 303.3671875 C168.74685303 302.83206543 169.3726123 302.29694336 170.01733398 301.74560547 C171.29812907 300.64004669 172.56055807 299.51312902 173.8125 298.375 C176.81195095 296.63338332 178.31967022 296.5903212 181.75 297.25 C189.57172044 302.78213237 196.17173613 310.516179 202.93969727 317.27856445 C204.25936284 318.59359399 205.57922291 319.90842837 206.89926147 321.2230835 C210.46571455 324.77649101 214.02889381 328.33316294 217.59105802 331.89086938 C219.8205993 334.11746876 222.05072174 336.34348448 224.28101921 338.5693264 C231.27091808 345.54557446 238.2588286 352.52380507 245.24384075 359.50494605 C253.28577245 367.54239507 261.33420431 375.57325899 269.38835675 383.59846145 C275.62998959 389.81844186 281.86581083 396.04421004 288.09729427 402.27435845 C291.81225276 405.98827199 295.52957 409.69974669 299.25296211 413.40520668 C302.75542369 416.89112468 306.25057463 420.38421351 309.74039841 423.88278198 C311.0168234 425.15997384 312.29578191 426.43463991 313.57754707 427.7064724 C325.82197241 439.86161035 336.0241881 451.15705473 336.25 469.25 C336.10039669 482.30592105 331.28277162 492.41127992 322.5 502 C313.20646841 510.86175246 301.30726728 512.8529834 288.984375 512.5625 C272.48185597 511.68236565 261.450936 499.40063583 250.50952148 488.4453125 C249.09008581 487.03486439 247.67004048 485.62502959 246.24943542 484.21575928 C242.41221771 480.4049261 238.58467089 476.58452283 234.75966525 472.76143646 C232.3687502 470.37265854 229.97570981 467.98603136 227.58189583 465.60015869 C219.22954774 457.27551313 210.88493288 448.94320607 202.54760742 440.60351562 C194.77504356 432.82914504 186.98585384 425.0717111 179.18878502 417.32192421 C172.49006424 410.66238263 165.80291213 403.9913743 159.12471253 397.3112545 C155.13776626 393.32354267 151.14628065 389.34064739 147.14312553 385.36920166 C143.38447595 381.6395208 139.64040084 377.89580949 135.90716743 374.14069366 C134.53367231 372.76405295 133.15501545 371.39254047 131.77093506 370.02654266 C129.88520181 368.16386511 128.0188221 366.28372999 126.15623474 364.39794922 C125.60207726 363.85922243 125.04791979 363.32049564 124.47696966 362.7654438 C121.95003005 360.16822493 120.8021718 358.64069819 120.3164072 355.00296021 C120.84497084 351.64701271 121.8469681 350.4803527 124.25 348.125 C126.22406667 346.25245669 126.22406667 346.25245669 127.75 344.25 C128.16436627 340.30456374 128.16436627 340.30456374 126.00585938 338.05175781 C125.20986328 337.27670898 124.41386719 336.50166016 123.59375 335.703125 C122.73652344 334.85878906 121.87929688 334.01445312 120.99609375 333.14453125 C120.08988281 332.27183594 119.18367188 331.39914062 118.25 330.5 C117.34378906 329.61183594 116.43757813 328.72367187 115.50390625 327.80859375 C113.26128384 325.61318444 111.00987232 323.42762613 108.75 321.25 C108.04367432 321.70383057 107.33734863 322.15766113 106.60961914 322.62524414 C62.46694154 350.87282481 14.12234299 362.91449067 -37.75 352.0625 C-48.30545483 349.72795191 -58.2945244 346.44327429 -68.25 342.25 C-68.97380859 341.94723145 -69.69761719 341.64446289 -70.44335938 341.33251953 C-85.66481545 334.85070471 -99.73526817 326.088846 -112.25 315.25 C-113.04277344 314.56679688 -113.83554688 313.88359375 -114.65234375 313.1796875 C-149.2327768 282.69646216 -171.5097895 242.52973048 -176.25 196.25 C-176.61970363 190.29646935 -176.6394733 184.33799959 -176.625 178.375 C-176.62478851 177.56695923 -176.62457703 176.75891846 -176.62435913 175.9263916 C-176.58829974 162.05976145 -175.47758312 148.77752761 -172.25 135.25 C-172.07339844 134.48961426 -171.89679688 133.72922852 -171.71484375 132.94580078 C-163.56238077 99.06023936 -143.15795447 65.41972016 -116.25 43.25 C-115.75709473 42.82879883 -115.26418945 42.40759766 -114.75634766 41.97363281 C-82.53903959 14.4572752 -42.24429032 0.03367716 0 0 Z " fill="#70D0FD" transform="translate(176.25,-0.25)"/>
<path d="M0 0 C1.13866013 -0.00101212 1.13866013 -0.00101212 2.30032349 -0.00204468 C14.34956428 0.01495002 25.9510827 0.62169481 37.75 3.25 C38.52230957 3.41628906 39.29461914 3.58257812 40.09033203 3.75390625 C65.34008425 9.3431115 89.30053271 20.4388204 109.75 36.25 C110.65492188 36.93191406 111.55984375 37.61382812 112.4921875 38.31640625 C143.76813713 62.77104343 165.24534264 97.55398553 174.5625 136 C174.75739014 136.80203857 174.95228027 137.60407715 175.15307617 138.43041992 C178.10295404 151.36489985 179.13278591 164.21489032 179.0625 177.4375 C179.05976578 178.51442108 179.05976578 178.51442108 179.05697632 179.61309814 C179.00697623 191.3639342 178.31708875 202.75520222 175.75 214.25 C175.57307617 215.0450293 175.39615234 215.84005859 175.21386719 216.65917969 C169.49868736 241.50392513 158.89425709 263.15878479 144.75 284.25 C146.23653506 287.71629835 148.20722351 289.94022036 150.8828125 292.578125 C151.68847656 293.37734375 152.49414062 294.1765625 153.32421875 295 C154.16597656 295.825 155.00773437 296.65 155.875 297.5 C157.14923828 298.76070313 157.14923828 298.76070313 158.44921875 300.046875 C160.54504923 302.11915683 162.64540713 304.18662393 164.75 306.25 C165.87402862 305.28944935 166.99764805 304.32841986 168.12109375 303.3671875 C168.74685303 302.83206543 169.3726123 302.29694336 170.01733398 301.74560547 C171.29812907 300.64004669 172.56055807 299.51312902 173.8125 298.375 C176.81195095 296.63338332 178.31967022 296.5903212 181.75 297.25 C189.57172044 302.78213237 196.17173613 310.516179 202.93969727 317.27856445 C204.25936284 318.59359399 205.57922291 319.90842837 206.89926147 321.2230835 C210.46571455 324.77649101 214.02889381 328.33316294 217.59105802 331.89086938 C219.8205993 334.11746876 222.05072174 336.34348448 224.28101921 338.5693264 C231.27091808 345.54557446 238.2588286 352.52380507 245.24384075 359.50494605 C253.28577245 367.54239507 261.33420431 375.57325899 269.38835675 383.59846145 C275.62998959 389.81844186 281.86581083 396.04421004 288.09729427 402.27435845 C291.81225276 405.98827199 295.52957 409.69974669 299.25296211 413.40520668 C302.75542369 416.89112468 306.25057463 420.38421351 309.74039841 423.88278198 C311.0168234 425.15997384 312.29578191 426.43463991 313.57754707 427.7064724 C325.82197241 439.86161035 336.0241881 451.15705473 336.25 469.25 C336.10039669 482.30592105 331.28277162 492.41127992 322.5 502 C313.20646841 510.86175246 301.30726728 512.8529834 288.984375 512.5625 C272.48185597 511.68236565 261.450936 499.40063583 250.50952148 488.4453125 C249.09008581 487.03486439 247.67004048 485.62502959 246.24943542 484.21575928 C242.41221771 480.4049261 238.58467089 476.58452283 234.75966525 472.76143646 C232.3687502 470.37265854 229.97570981 467.98603136 227.58189583 465.60015869 C219.22954774 457.27551313 210.88493288 448.94320607 202.54760742 440.60351562 C194.77504356 432.82914504 186.98585384 425.0717111 179.18878502 417.32192421 C172.49006424 410.66238263 165.80291213 403.9913743 159.12471253 397.3112545 C155.13776626 393.32354267 151.14628065 389.34064739 147.14312553 385.36920166 C143.38447595 381.6395208 139.64040084 377.89580949 135.90716743 374.14069366 C134.53367231 372.76405295 133.15501545 371.39254047 131.77093506 370.02654266 C129.88520181 368.16386511 128.0188221 366.28372999 126.15623474 364.39794922 C125.60207726 363.85922243 125.04791979 363.32049564 124.47696966 362.7654438 C121.95003005 360.16822493 120.8021718 358.64069819 120.3164072 355.00296021 C120.84497084 351.64701271 121.8469681 350.4803527 124.25 348.125 C126.22406667 346.25245669 126.22406667 346.25245669 127.75 344.25 C128.16436627 340.30456374 128.16436627 340.30456374 126.00585938 338.05175781 C125.20986328 337.27670898 124.41386719 336.50166016 123.59375 335.703125 C122.73652344 334.85878906 121.87929688 334.01445312 120.99609375 333.14453125 C120.08988281 332.27183594 119.18367188 331.39914062 118.25 330.5 C117.34378906 329.61183594 116.43757813 328.72367187 115.50390625 327.80859375 C113.26128384 325.61318444 111.00987232 323.42762613 108.75 321.25 C108.04367432 321.70383057 107.33734863 322.15766113 106.60961914 322.62524414 C62.46694154 350.87282481 14.12234299 362.91449067 -37.75 352.0625 C-48.30545483 349.72795191 -58.2945244 346.44327429 -68.25 342.25 C-68.97380859 341.94723145 -69.69761719 341.64446289 -70.44335938 341.33251953 C-85.66481545 334.85070471 -99.73526817 326.088846 -112.25 315.25 C-113.04277344 314.56679688 -113.83554688 313.88359375 -114.65234375 313.1796875 C-149.2327768 282.69646216 -171.5097895 242.52973048 -176.25 196.25 C-176.61970363 190.29646935 -176.6394733 184.33799959 -176.625 178.375 C-176.62478851 177.56695923 -176.62457703 176.75891846 -176.62435913 175.9263916 C-176.58829974 162.05976145 -175.47758312 148.77752761 -172.25 135.25 C-172.07339844 134.48961426 -171.89679688 133.72922852 -171.71484375 132.94580078 C-163.56238077 99.06023936 -143.15795447 65.41972016 -116.25 43.25 C-115.75709473 42.82879883 -115.26418945 42.40759766 -114.75634766 41.97363281 C-82.53903959 14.4572752 -42.24429032 0.03367716 0 0 Z M-82.25 54.25 C-83.69246094 55.26513672 -83.69246094 55.26513672 -85.1640625 56.30078125 C-119.19017728 81.05104304 -140.08147472 116.23972096 -146.8046875 157.66796875 C-147.59769652 164.32465427 -147.49435334 171.05498094 -147.5 177.75 C-147.50067474 178.46786682 -147.50134949 179.18573364 -147.50204468 179.925354 C-147.48644841 190.35911256 -147.01247372 200.10983543 -144.25 210.25 C-143.89275669 211.71050458 -143.53738939 213.17146892 -143.18359375 214.6328125 C-137.61232535 236.84237546 -127.10795387 256.86557144 -112.25 274.25 C-111.80398437 274.77577637 -111.35796875 275.30155273 -110.8984375 275.84326172 C-87.39082466 303.277402 -51.89848788 322.58357591 -15.76464844 326.08666992 C0.75094129 327.15938153 17.61428094 327.22861728 33.75 323.25 C34.44947754 323.07839355 35.14895508 322.90678711 35.86962891 322.72998047 C64.32518958 315.49814481 88.22212269 301.33268481 108.75 280.25 C109.23339844 279.81171875 109.71679688 279.3734375 110.21484375 278.921875 C133.74529783 256.99702837 148.35156195 220.70609541 149.91113281 188.97119141 C150.27483006 166.92923183 150.27483006 166.92923183 146.75 145.25 C146.57839355 144.56760254 146.40678711 143.88520508 146.22998047 143.18212891 C137.68710343 109.85803751 119.43058125 80.06184861 91.75 59.25 C90.58791016 58.36441406 90.58791016 58.36441406 89.40234375 57.4609375 C39.70848351 21.12385772 -31.42557526 18.45922642 -82.25 54.25 Z " fill="#666767" transform="translate(176.25,-0.25)"/>
<path d="M0 0 C7.82172044 5.53213237 14.42173613 13.266179 21.18969727 20.02856445 C22.50936284 21.34359399 23.82922291 22.65842837 25.14926147 23.9730835 C28.71571455 27.52649101 32.27889381 31.08316294 35.84105802 34.64086938 C38.0705993 36.86746876 40.30072174 39.09348448 42.53101921 41.3193264 C49.52091808 48.29557446 56.5088286 55.27380507 63.49384075 62.25494605 C71.53577245 70.29239507 79.58420431 78.32325899 87.63835675 86.34846145 C93.87998959 92.56844186 100.11581083 98.79421004 106.34729427 105.02435845 C110.06225276 108.73827199 113.77957 112.44974669 117.50296211 116.15520668 C121.00542369 119.64112468 124.50057463 123.13421351 127.99039841 126.63278198 C129.2668234 127.90997384 130.54578191 129.18463991 131.82754707 130.4564724 C144.07197241 142.61161035 154.2741881 153.90705473 154.5 172 C154.35039669 185.05592105 149.53277162 195.16127992 140.75 204.75 C131.45646841 213.61175246 119.55726728 215.6029834 107.234375 215.3125 C90.73185597 214.43236565 79.700936 202.15063583 68.75952148 191.1953125 C67.34008581 189.78486439 65.92004048 188.37502959 64.49943542 186.96575928 C60.66221771 183.1549261 56.83467089 179.33452283 53.00966525 175.51143646 C50.6187502 173.12265854 48.22570981 170.73603136 45.83189583 168.35015869 C37.47954774 160.02551313 29.13493288 151.69320607 20.79760742 143.35351562 C13.02504356 135.57914504 5.23585384 127.8217111 -2.56121498 120.07192421 C-9.25993576 113.41238263 -15.94708787 106.7413743 -22.62528747 100.0612545 C-26.61223374 96.07354267 -30.60371935 92.09064739 -34.60687447 88.11920166 C-38.36552405 84.3895208 -42.10959916 80.64580949 -45.84283257 76.89069366 C-47.21632769 75.51405295 -48.59498455 74.14254047 -49.97906494 72.77654266 C-51.86479819 70.91386511 -53.7311779 69.03372999 -55.59376526 67.14794922 C-56.14792274 66.60922243 -56.70208021 66.07049564 -57.27303034 65.5154438 C-59.81298739 62.90484545 -60.95003949 61.40025037 -61.40722561 57.73757935 C-60.40673372 51.01175986 -53.32739476 46.34894445 -48.53515625 42.0234375 C-42.45463623 36.49033671 -36.5991458 30.75249836 -30.7980957 24.9284668 C-29.17447771 23.29943428 -27.54550397 21.67589272 -25.91601562 20.05273438 C-20.92099727 15.0598008 -15.99876505 10.05877106 -11.4934082 4.61010742 C-7.93845306 0.77735784 -5.31397331 -1.02191794 0 0 Z " fill="#F7981A" transform="translate(358,297)"/>
<path d="M0 0 C12.18498534 10.06585745 26.4187244 22.35676511 28.22314453 39.06640625 C29.26081681 54.02970559 26.00157635 65.24869319 16.41015625 76.9375 C9.68669655 84.277936 -0.06329375 88.77522601 -10.015625 89.3359375 C-24.00013766 89.63382857 -34.71012933 86.44079224 -45.31689453 76.92041016 C-47.60357036 74.68954273 -49.84186033 72.42154234 -52.0625 70.125 C-52.83271484 69.34125 -53.60292969 68.5575 -54.39648438 67.75 C-56.27145808 65.8400889 -58.1389901 63.92350292 -60 62 C-54.91004031 55.78325111 -49.27604984 50.15868182 -43.58080101 44.50563622 C-41.82596769 42.76368424 -40.07438095 41.01852404 -38.32356262 39.27253723 C-34.61435867 35.57469046 -30.90120925 31.88082139 -27.1875 28.1875 C-22.86481727 23.88842635 -18.54377125 19.58773345 -14.22689247 15.28283119 C-12.49998508 13.56241176 -10.77009903 11.84502578 -9.04008484 10.12773132 C-7.98775821 9.07903508 -6.93557052 8.03019939 -5.88354492 6.98120117 C-4.50171272 5.6072242 -4.50171272 5.6072242 -3.09196472 4.20549011 C-0.97010257 2.18275928 -0.97010257 2.18275928 0 0 Z " fill="#F7981A" transform="translate(484,423)"/>
<path d="M0 0 C3.77062132 2.07014504 7.005306 4.12142833 9 8 C9.58436041 13.25924371 8.86210789 16.56834907 6 21 C4.97756964 22.01965955 3.93339926 23.0177269 2.875 24 C-11.73271135 38.11358158 -18.02018502 58.69445683 -18.4375 78.5 C-18.43332256 100.77410222 -9.14980817 121.92962482 5.9375 138.1875 C8.77620492 142.05846126 9 144.19364629 9 149 C7.30951028 154.17090974 4.81883915 156.5433369 0 159 C-4.34058363 159.96457414 -6.79936782 158.75687522 -10.4375 156.5 C-28.73493922 143.27330353 -38.04224025 118.07675395 -41.52734375 96.54296875 C-41.68332031 95.37378906 -41.83929688 94.20460938 -42 93 C-42.0913623 92.35232666 -42.18272461 91.70465332 -42.27685547 91.03735352 C-45.96988025 63.78072406 -38.34539055 37.20716544 -21.86962891 15.34716797 C-9.27906127 -0.89221743 -9.27906127 -0.89221743 0 0 Z " fill="#E2E9F8" transform="translate(113,98)"/>
<path d="M0 0 C3.00016351 1.30915663 5.09763015 3.54602553 7.37989807 5.8273468 C7.88711899 6.32695419 8.3943399 6.82656158 8.91693115 7.34130859 C9.98387988 8.3974731 11.04690135 9.45761784 12.10621643 10.5214386 C13.73337135 12.14956889 15.38069951 13.75519224 17.0302887 15.36054993 C18.06478967 16.38984612 19.09803757 17.42040357 20.12989807 18.4523468 C20.62560806 18.93166153 21.12131805 19.41097626 21.63204956 19.90481567 C22.98854065 21.289505 22.98854065 21.289505 24.92286682 23.83906555 C24.82773355 28.19799662 21.39808355 30.76274302 18.48512268 33.61738586 C17.636343 34.46682266 17.636343 34.46682266 16.77041626 35.3334198 C14.89987125 37.20187619 13.01892756 39.05948454 11.13771057 40.91719055 C9.83811273 42.21119272 8.53917603 43.50585919 7.24087524 44.80116272 C3.82303397 48.20755306 0.3962792 51.60483815 -3.03239441 55.00032043 C-6.52993712 58.46716784 -10.01899616 61.94252992 -13.5087738 65.41719055 C-20.35660592 72.23285411 -27.21388245 79.03893098 -34.07713318 85.83906555 C-37.8747232 84.06732541 -40.57767097 81.67697086 -43.53416443 78.75312805 C-44.2949958 78.00583939 -44.2949958 78.00583939 -45.07119751 77.24345398 C-46.13699488 76.19211943 -47.20004124 75.13798958 -48.26048279 74.08125305 C-49.88960256 72.46409595 -51.53645037 70.86652831 -53.18455505 69.26875305 C-54.21890146 68.24386393 -55.25214422 67.21785952 -56.28416443 66.19062805 C-56.77987442 65.71445038 -57.27558441 65.23827271 -57.78631592 64.74766541 C-59.14280701 63.37275696 -59.14280701 63.37275696 -61.07713318 60.83906555 C-60.9791918 56.4152134 -57.52348147 53.917852 -54.51463318 51.02656555 C-54.0138324 50.53092102 -53.51303162 50.03527649 -52.99705505 49.52461243 C-50.22602381 46.80949102 -47.37653092 44.22402857 -44.42601013 41.70552063 C-39.756162 37.63023741 -35.44617385 33.24588851 -31.12400818 28.80781555 C-29.43710104 27.09369024 -27.74958353 25.38016542 -26.06150818 23.66719055 C-23.42654105 20.98873559 -20.79564829 18.30672282 -18.17478943 15.61445618 C-15.62746288 13.00089156 -13.06481458 10.4032228 -10.49900818 7.80781555 C-9.32081512 6.58620728 -9.32081512 6.58620728 -8.11882019 5.33992004 C-7.38415527 4.60164978 -6.64949036 3.86337952 -5.89256287 3.10273743 C-5.25050903 2.44656433 -4.6084552 1.79039124 -3.94694519 1.11433411 C-2.07713318 -0.16093445 -2.07713318 -0.16093445 0 0 Z " fill="#696765" transform="translate(459.07713317871094,398.1609344482422)"/>
<path d="M0 0 C3.66752005 1.5391801 5.98580573 3.75485452 8.765625 6.5703125 C9.65507812 7.46621094 10.54453125 8.36210937 11.4609375 9.28515625 C12.38132812 10.22230469 13.30171875 11.15945313 14.25 12.125 C15.19484856 13.07988637 16.14015633 14.03431859 17.0859375 14.98828125 C19.39518338 17.32109087 21.69963203 19.65844086 24 22 C19.97251947 26.83298806 15.75620587 31.38110004 11.2890625 35.80859375 C10.67606293 36.42017838 10.06306335 37.031763 9.43148804 37.66188049 C7.49835436 39.58947559 5.56175013 41.51353928 3.625 43.4375 C2.30315301 44.75432404 0.98153628 46.07137926 -0.33984375 47.38867188 C-3.55724299 50.59512373 -6.77775681 53.79841629 -10 57 C-15.63758093 54.58630037 -19.49012406 49.83810665 -23.75 45.5625 C-24.63816406 44.69044922 -25.52632813 43.81839844 -26.44140625 42.91992188 C-27.28058594 42.08138672 -28.11976563 41.24285156 -28.984375 40.37890625 C-30.14018066 39.22757202 -30.14018066 39.22757202 -31.31933594 38.05297852 C-33 36 -33 36 -33 33 C-31.3828125 31.4921875 -31.3828125 31.4921875 -29.125 29.875 C-17.63094395 21.2906028 -8.64930739 11.35714527 0 0 Z " fill="#545454" transform="translate(318,285)"/>
</svg>
